HIERARCHY
ROOT Hips
{
	OFFSET -0.001795 -0.223333 0.028219
	CHANNELS 6 Xposition Yposition Zposition Zrotation Yrotation Xrotation 
	JOINT LeftUpLeg
	{
		OFFSET 0.069520 -0.091406 -0.006815
		CHANNELS 3 Zrotation Yrotation Xrotation
		JOINT LeftLeg
		{
			OFFSET 0.034277 -0.375199 -0.004496
			CHANNELS 3 Zrotation Yrotation Xrotation
			JOINT LeftFoot
			{
				OFFSET -0.013596 -0.397961 -0.043693
				CHANNELS 3 Zrotation Yrotation Xrotation
				JOINT LeftToe
				{
					OFFSET 0.026358 -0.055791 0.119288
					CHANNELS 3 Zrotation Yrotation Xrotation
					End Site
					{
						OFFSET 0.000000 0.000000 0.000000
					}
				}
			}
		}
	}
	JOINT RightUpLeg
	{
		OFFSET -0.067670 -0.090522 -0.004320
		CHANNELS 3 Zrotation Yrotation Xrotation
		JOINT RightLeg
		{
			OFFSET -0.038290 -0.382569 -0.008850
			CHANNELS 3 Zrotation Yrotation Xrotation
			JOINT RightFoot
			{
				OFFSET 0.015774 -0.398415 -0.042312
				CHANNELS 3 Zrotation Yrotation Xrotation
				JOINT RightToe
				{
					OFFSET -0.025372 -0.048144 0.123348
					CHANNELS 3 Zrotation Yrotation Xrotation
					End Site
					{
						OFFSET 0.000000 0.000000 0.000000
					}
				}
			}
		}
	}
	JOINT Spine
	{
		OFFSET -0.002533 0.108963 -0.026696
		CHANNELS 3 Zrotation Yrotation Xrotation
		JOINT Spine1
		{
			OFFSET 0.005487 0.135180 0.001092
			CHANNELS 3 Zrotation Yrotation Xrotation
			JOINT Spine2
			{
				OFFSET 0.001457 0.052922 0.025425
				CHANNELS 3 Zrotation Yrotation Xrotation
				JOINT Neck
				{
					OFFSET -0.002778 0.213870 -0.042857
					CHANNELS 3 Zrotation Yrotation Xrotation
					JOINT Head
					{
						OFFSET 0.005152 0.064970 0.051349
						CHANNELS 3 Zrotation Yrotation Xrotation
						End Site
						{
							OFFSET 0.000000 0.000000 0.000000
						}
					}
				}
				JOINT LeftShoulder
				{
					OFFSET 0.078845 0.121749 -0.034090
					CHANNELS 3 Zrotation Yrotation Xrotation
					JOINT LeftArm
					{
						OFFSET 0.090977 0.030469 -0.008868
						CHANNELS 3 Zrotation Yrotation Xrotation
						JOINT LeftForeArm
						{
							OFFSET 0.259612 -0.012772 -0.027456
							CHANNELS 3 Zrotation Yrotation Xrotation
							JOINT LeftHand
							{
								OFFSET 0.249234 0.008986 -0.001171
								CHANNELS 3 Zrotation Yrotation Xrotation
								End Site
								{
									OFFSET 0.000000 0.000000 0.000000
								}
							}
						}
					}
				}
				JOINT RightShoulder
				{
					OFFSET -0.081759 0.118833 -0.038615
					CHANNELS 3 Zrotation Yrotation Xrotation
					JOINT RightArm
					{
						OFFSET -0.096012 0.032551 -0.009143
						CHANNELS 3 Zrotation Yrotation Xrotation
						JOINT RightForeArm
						{
							OFFSET -0.253742 -0.013329 -0.021401
							CHANNELS 3 Zrotation Yrotation Xrotation
							JOINT RightHand
							{
								OFFSET -0.255298 0.007772 -0.005559
								CHANNELS 3 Zrotation Yrotation Xrotation
								End Site
								{
									OFFSET 0.000000 0.000000 0.000000
								}
							}
						}
					}
				}
			}
		}
	}
}
MOTION
Frames: 13
Frame Time: 0.050000
0.000000 0.968576 0.000000 0.086562 0.351826 3.918622 -3.493715 -1.190463 -10.387252 -1.863838 0.160247 2.222631 2.742872 10.477723 18.360667 0.000000 0.000000 0.000000 -6.221228 0.941790 -16.475250 0.642065 0.231208 8.913337 -3.619447 -12.921105 19.322462 0.000000 0.000000 0.000000 2.508961 -0.242652 2.995496 -0.633146 0.548554 -12.129861 -1.025634 -1.408043 21.497503 3.159733 -1.036641 -18.491966 0.000000 0.000000 0.000000 -6.541764 6.870991 -3.159243 -53.556673 16.867659 -14.877395 -96.793463 -8.325679 12.634080 0.000000 0.000000 0.000000 -1.957145 -11.854918 -3.879618 41.987562 -36.871194 -16.897762 115.695378 -1.881664 -7.329312 0.000000 0.000000 0.000000 
0.004173 0.966309 0.001269 -0.114531 -0.815174 4.239972 -4.090407 -1.083293 -9.234602 -0.799217 0.049890 1.416902 3.781822 11.173106 14.717833 0.000000 0.000000 0.000000 -6.409147 0.951391 -16.187409 0.972171 0.222023 10.000623 -3.853952 -12.841281 14.889651 0.000000 0.000000 0.000000 2.628232 -0.253935 3.041235 -0.748930 0.586040 -13.620039 -0.615016 -0.231120 22.343107 4.108650 -1.425872 -19.979767 0.000000 0.000000 0.000000 -6.518013 8.460094 -3.869441 -51.673804 18.066257 -14.841266 -97.737460 -5.749123 9.223459 0.000000 0.000000 0.000000 -2.647955 -12.306341 -3.945299 40.491935 -39.523600 -17.024564 116.112196 -0.552814 -5.035333 0.000000 0.000000 0.000000 
0.007585 0.964350 0.002275 0.397470 -0.819216 4.196604 -4.279051 -1.076395 -9.079741 -1.009766 0.042978 2.748048 3.388905 10.230486 12.899778 0.000000 0.000000 0.000000 -6.722420 0.883583 -15.427053 0.339693 0.333269 9.735399 -3.648818 -12.286855 13.722265 0.000000 0.000000 0.000000 2.277298 -0.190966 2.296625 -0.720978 0.540014 -11.522685 -1.402477 -0.488748 20.797890 3.803666 -1.486007 -17.470227 0.000000 0.000000 0.000000 -6.454865 9.263469 -4.197789 -51.585257 20.830204 -15.783474 -95.838581 -4.382088 7.120948 0.000000 0.000000 0.000000 -1.266147 -12.464997 -4.215966 38.748702 -42.298581 -16.993010 115.166606 1.229180 -2.429326 0.000000 0.000000 0.000000 
0.010343 0.963831 0.002972 0.753158 -1.358548 4.530537 -5.335020 -1.111412 -8.900588 -0.242828 -0.046596 2.363216 2.848209 9.248601 12.583745 0.000000 0.000000 0.000000 -7.442803 0.831457 -15.342436 0.425653 0.319068 9.609160 -3.792017 -12.661400 13.992677 0.000000 0.000000 0.000000 1.164808 -0.079889 1.026892 -0.388314 0.379120 -10.040814 -1.783724 -0.678544 20.163301 4.603580 -2.195491 -16.122051 0.000000 0.000000 0.000000 -7.008685 10.057291 -4.594521 -51.772085 22.657198 -16.467410 -92.293536 -5.494542 8.025416 0.000000 0.000000 0.000000 -0.130883 -12.333582 -4.360196 37.000277 -42.040228 -16.060570 115.094206 3.253625 0.524863 0.000000 0.000000 0.000000 
0.012554 0.963194 0.003133 0.678245 -1.766440 3.942197 -5.550539 -1.024410 -8.113120 0.312185 -0.125476 2.541615 3.369695 9.952047 12.169774 0.000000 0.000000 0.000000 -7.526940 0.776803 -14.030482 0.273710 0.273069 7.658838 -3.879962 -13.097708 15.383895 0.000000 0.000000 0.000000 0.798311 -0.096741 1.665736 -0.248352 0.320520 -10.138745 -1.977740 -1.045588 20.199961 4.604299 -2.210182 -16.779060 0.000000 0.000000 0.000000 -7.347749 9.883299 -4.523702 -52.313872 23.287227 -16.873700 -92.278206 -9.628867 12.961231 0.000000 0.000000 0.000000 0.479965 -11.477681 -4.151540 38.015533 -39.393728 -15.882215 114.910566 5.126939 3.452923 0.000000 0.000000 0.000000 
0.014687 0.962688 0.002430 0.500564 -2.965606 3.266342 -5.389254 -0.915092 -7.262769 0.499591 -0.119700 1.712886 3.491768 10.008600 12.138676 0.000000 0.000000 0.000000 -7.384234 0.785833 -13.404450 0.189326 0.282253 7.292855 -3.305254 -12.175824 14.798675 0.000000 0.000000 0.000000 0.438504 -0.106666 2.209286 -0.224528 0.275477 -9.662709 -1.819908 -0.082848 19.265954 5.748525 -2.882088 -16.788019 0.000000 0.000000 0.000000 -7.530648 9.253087 -4.299528 -51.930565 21.766032 -16.097169 -91.033667 -14.549115 17.912627 0.000000 0.000000 0.000000 1.422588 -10.061682 -3.790125 40.365783 -35.958322 -15.850190 114.994102 9.668914 11.570715 0.000000 0.000000 0.000000 
0.016772 0.962369 0.000506 0.085770 -3.456217 2.990190 -4.617920 -0.792778 -6.550480 0.221935 -0.069889 1.306378 3.518635 10.007390 12.192388 0.000000 0.000000 0.000000 -7.268331 0.800882 -13.344623 0.420199 0.207059 6.306527 -3.058463 -11.894704 15.176150 0.000000 0.000000 0.000000 0.275215 -0.113358 2.520831 -0.032373 0.186659 -9.361830 -1.722543 0.014232 18.038535 6.254309 -3.128083 -17.243934 0.000000 0.000000 0.000000 -8.460028 7.405609 -3.605091 -52.310219 17.701250 -14.518438 -89.018147 -22.241297 25.541809 0.000000 0.000000 0.000000 2.868400 -7.454758 -3.052165 42.950758 -29.867103 -14.913771 113.913219 16.307058 22.412645 0.000000 0.000000 0.000000 
0.019183 0.962061 -0.002517 -0.340991 -3.578090 2.872272 -3.862774 -0.758331 -6.511942 0.009919 -0.027932 0.834751 3.738447 10.442114 12.754172 0.000000 0.000000 0.000000 -7.146571 0.829241 -13.737599 0.648099 0.155535 5.871695 -2.974716 -11.922970 15.937448 0.000000 0.000000 0.000000 -0.207041 -0.106559 2.861387 0.271445 0.053137 -8.666110 -1.461174 0.017144 16.335525 6.590864 -3.257530 -17.454605 0.000000 0.000000 0.000000 -9.666433 3.958134 -2.211755 -52.348382 11.169605 -11.799087 -84.926016 -31.818393 33.326880 0.000000 0.000000 0.000000 5.081143 -3.008384 -1.649622 45.695643 -21.538491 -12.928258 111.172325 26.545272 37.169379 0.000000 0.000000 0.000000 
0.021515 0.961910 -0.006288 -0.560679 -3.836289 2.455888 -3.388557 -0.709306 -6.223667 -0.518295 0.050231 0.368627 3.692067 10.475384 13.581969 0.000000 0.000000 0.000000 -7.218265 0.838734 -14.074866 0.460696 0.188847 5.960186 -2.656214 -11.715452 17.332287 0.000000 0.000000 0.000000 -0.510141 -0.098714 3.002320 0.240091 0.042214 -7.883887 -1.391359 0.073140 14.747318 6.244589 -3.038029 -17.098173 0.000000 0.000000 0.000000 -10.927610 -0.211545 -0.420881 -53.049283 2.813584 -8.403141 -74.830021 -40.931311 36.000557 0.000000 0.000000 0.000000 7.717348 1.856897 0.037398 47.264851 -11.619884 -9.669975 104.535754 36.423014 46.374813 0.000000 0.000000 0.000000 
0.023249 0.961188 -0.010314 -0.953611 -4.547999 1.941051 -2.779767 -0.663773 -5.984256 -0.890955 0.100876 0.185488 4.230254 11.326958 14.212126 0.000000 0.000000 0.000000 -6.996517 0.874155 -14.222361 0.861617 0.147000 6.303587 -2.674424 -11.907326 17.573156 0.000000 0.000000 0.000000 -0.715079 -0.107731 3.521820 0.339036 -0.032105 -6.913293 -1.076675 0.191078 13.266675 6.150946 -2.970338 -17.006388 0.000000 0.000000 0.000000 -12.829102 -4.413543 1.507787 -52.871106 -4.765223 -5.074292 -62.777838 -49.097681 35.250553 0.000000 0.000000 0.000000 9.511454 6.690838 1.934270 48.785435 -1.716515 -6.101244 96.404223 45.818038 51.539968 0.000000 0.000000 0.000000 
0.024248 0.960554 -0.014181 -1.185717 -4.908188 1.303272 -2.304335 -0.649077 -5.984474 -1.429715 0.162964 0.401927 4.857373 12.312085 14.703025 0.000000 0.000000 0.000000 -7.186644 0.872725 -14.539340 0.974865 0.144587 6.613168 -2.512251 -11.942692 18.734272 0.000000 0.000000 0.000000 -1.272914 -0.094320 3.914074 0.493877 -0.122345 -5.982130 -0.430020 -0.224820 11.869141 5.348936 -2.539027 -16.722615 0.000000 0.000000 0.000000 -13.597117 -7.396496 3.053088 -53.859394 -11.433593 -2.082822 -49.676773 -54.158863 30.779706 0.000000 0.000000 0.000000 10.886401 11.631713 3.964012 49.648935 7.227438 -2.524063 87.709919 52.806422 52.013234 0.000000 0.000000 0.000000 
0.024733 0.960031 -0.017105 -1.530420 -5.689265 1.071318 -1.585403 -0.645761 -6.237460 -2.078958 0.242287 0.795111 5.728801 13.483659 13.874429 0.000000 0.000000 0.000000 -7.079749 0.921980 -14.972710 1.063395 0.139135 6.656421 -1.533501 -10.214575 17.548397 0.000000 0.000000 0.000000 -1.291467 -0.099350 4.122682 0.387621 -0.095881 -5.729046 -0.153822 0.319297 10.776093 5.390521 -2.538575 -16.545859 0.000000 0.000000 0.000000 -13.857562 -10.023748 4.308094 -53.795161 -16.526706 0.347299 -39.751279 -56.523287 25.935500 0.000000 0.000000 0.000000 11.908521 15.535211 5.766416 49.601603 14.939397 0.722512 77.131967 58.900771 49.841859 0.000000 0.000000 0.000000 
0.024849 0.960298 -0.018739 -1.787624 -6.716805 0.993636 -1.259524 -0.624087 -6.160793 -1.908691 0.223821 0.902869 6.006663 13.791143 13.669886 0.000000 0.000000 0.000000 -6.971291 0.960879 -14.998575 1.199876 0.083216 5.545081 -0.784411 -9.145599 17.530883 0.000000 0.000000 0.000000 -1.515601 -0.084098 3.983990 0.564068 -0.186951 -5.659984 0.325929 1.198973 10.117630 5.307052 -2.601865 -15.132524 0.000000 0.000000 0.000000 -13.451679 -11.884097 5.125888 -53.761196 -20.235498 2.176247 -31.536363 -58.091134 21.579146 0.000000 0.000000 0.000000 11.812552 17.563709 6.739153 50.156206 21.224873 3.445885 63.919582 61.859411 42.598636 0.000000 0.000000 0.000000 
